PathFileType	4	(X/Y/Z)	 s02c0202.trc
DataRate	CameraRate	NumFrames	NumMarkers	Units	OrigDataRate	OrigDataStartFrame	OrigNumFrames
200	200	4	50	mm	200	1001	2000
Frame#	Time	racr			lacr			c7			jug			rlel			rdr			llel			ldr			s2			lic			ric			lasi			rasi			rpsi			lpsi			rgt			lgt			rth1			rth2			rth3			rth4			rlfc			rmfc			rsh1			rsh2			rsh3			rsh4			rlmal			rmmal			rtoe			rmt5			rmt1			lth1			lth2			lth4			lth3			llfc			lmfc			lsh1			lsh2			lsh3			lsh4			llmal			lmmal			lcal			ltoe			lmt5			SBIKE			LBIKE			RBIKE			
		X1	Y1	Z1	X2	Y2	Z2	X3	Y3	Z3	X4	Y4	Z4	X5	Y5	Z5	X6	Y6	Z6	X7	Y7	Z7	X8	Y8	Z8	X9	Y9	Z9	X10	Y10	Z10	X11	Y11	Z11	X12	Y12	Z12	X13	Y13	Z13	X14	Y14	Z14	X15	Y15	Z15	X16	Y16	Z16	X17	Y17	Z17	X18	Y18	Z18	X19	Y19	Z19	X20	Y20	Z20	X21	Y21	Z21	X22	Y22	Z22	X23	Y23	Z23	X24	Y24	Z24	X25	Y25	Z25	X26	Y26	Z26	X27	Y27	Z27	X28	Y28	Z28	X29	Y29	Z29	X30	Y30	Z30	X31	Y31	Z31	X32	Y32	Z32	X33	Y33	Z33	X34	Y34	Z34	X35	Y35	Z35	X36	Y36	Z36	X37	Y37	Z37	X38	Y38	Z38	X39	Y39	Z39	X40	Y40	Z40	X41	Y41	Z41	X42	Y42	Z42	X43	Y43	Z43	X44	Y44	Z44	X45	Y45	Z45	X46	Y46	Z46	X47	Y47	Z47	X48	Y48	Z48	X49	Y49	Z49	X50	Y50	Z50	
1001	5.0050	604.249501	1230.386351	-216.634600	555.663582	1225.218276	-525.613522	558.335665	1268.301966	-379.998772	535.679768	1131.535768	-364.874520	561.094904	1016.362359	-52.112858	701.917783	885.084574	-115.510108	510.884895	967.185746	-634.053866	686.963360	889.806307	-522.299330	30.613324	1136.824460	-311.175451	165.951822	1141.166410	-448.954693	157.352371	1126.579294	-165.619058	209.004055	1110.138193	-422.424331	207.784778	1099.688317	-190.719597	52.141076	1166.082319	-266.292292	56.193330	1174.474958	-349.657104	113.751316	1037.519578	-133.354113	128.299096	1057.812264	-491.728508	184.411154	956.125583	-114.979537	243.750487	890.724032	-109.496996	263.656850	809.692266	-87.668868	273.075272	903.432563	-129.838313	305.544203	674.442115	-122.186801	308.887290	659.248804	-229.167508	275.973680	571.516390	-107.139108	268.908452	484.127941	-125.309067	222.383059	411.911225	-126.872774	287.445519	482.708980	-160.454358	176.639584	304.321227	-139.094391	193.969063	322.148826	-216.083437	329.338871	133.268515	-185.788038	230.080900	179.812761	-127.105107	260.539800	179.583428	-232.752824	260.066598	1026.427804	-491.853311	345.241062	1018.123389	-481.054695	354.891119	1048.684301	-462.420288	417.574511	966.363419	-479.746203	509.467518	929.581586	-456.166314	511.014616	899.724247	-344.566042	477.821030	838.744106	-473.535159	448.182580	758.429831	-461.491757	380.505585	699.243950	-469.993838	465.886781	747.274102	-426.360334	302.191175	611.660593	-461.062777	319.977625	601.431921	-384.379912	223.455965	578.780474	-425.447467	490.905807	474.262490	-438.166347	382.838653	489.440820	-495.874138	-162.441624	858.998815	-312.661434	37.186667	87.149443	-514.202195	33.534214	82.842394	-114.600987	
1002	5.0100	605.317615	1228.262150	-219.689813	553.422043	1224.794390	-527.057492	557.743365	1267.246793	-382.250729	534.543612	1130.521252	-367.571481	561.797018	1017.046178	-52.129979	701.659906	885.075352	-115.437728	509.193970	965.924733	-633.287554	686.412516	890.063308	-522.361723	29.038432	1138.532702	-311.816438	166.646664	1140.158890	-447.391663	157.054628	1127.742972	-164.775425	208.472959	1107.915857	-420.348074	207.494939	1100.442674	-190.075492	51.918623	1168.099055	-265.275781	55.634691	1176.171700	-348.680590	113.489539	1038.638940	-132.228791	127.105546	1058.413142	-490.293500	184.986607	957.748907	-114.778755	245.479101	893.387018	-109.293960	266.761980	812.692131	-87.496429	274.579136	906.624752	-129.521158	310.026064	677.712492	-121.988267	313.249543	662.623415	-229.140678	278.491837	575.080038	-107.236201	268.739406	487.965313	-125.774090	220.174946	417.026805	-127.182468	286.937342	486.002979	-161.063086	170.808856	311.026635	-139.302534	188.521458	328.433419	-216.492679	319.656975	136.632253	-185.650534	221.404415	185.376956	-127.385798	251.817802	184.139783	-233.039437	257.488214	1024.169652	-487.848814	343.845784	1015.745288	-481.028168	354.083287	1046.276257	-462.728280	415.396401	962.999477	-480.009817	507.177979	924.813085	-456.903953	509.258019	894.898234	-345.518986	475.794642	832.576653	-474.820301	448.513690	752.303282	-462.458778	381.976354	691.849259	-470.716078	466.548378	741.589965	-427.380918	305.892778	602.488412	-461.069535	323.364794	592.652306	-384.523975	227.593954	566.491997	-425.855537	499.165285	472.883738	-438.316692	390.571450	483.615376	-496.352837	-162.477090	858.311794	-314.446121	37.197437	87.081588	-514.221760	33.886606	82.559420	-114.427644	
1003	5.0150	606.446735	1226.290877	-222.259415	551.120428	1224.288741	-528.718417	557.093043	1266.257053	-384.268991	533.505381	1129.558177	-369.944900	562.298685	1017.677950	-52.056971	701.262508	885.088725	-115.375873	507.573472	964.716871	-632.368513	685.786908	889.957354	-522.145849	28.797420	1140.341336	-311.070570	166.320753	1140.164450	-446.744606	156.184863	1128.068152	-164.555429	207.924250	1107.759705	-419.545483	207.139891	1101.023933	-189.494626	51.675910	1170.044901	-264.291153	55.388629	1178.022652	-347.629203	113.485700	1039.743176	-131.073873	125.970378	1058.622187	-488.827195	185.883413	959.471017	-114.418102	247.398504	896.206592	-109.119795	270.164170	815.780774	-87.507929	276.273405	909.917667	-129.449699	315.078967	681.180591	-121.753282	317.733602	666.173521	-229.490652	281.377935	578.772239	-107.454344	268.854116	492.012633	-126.261582	218.216834	422.471049	-127.380763	286.718594	489.618018	-161.727958	165.129184	318.170506	-139.496700	183.372427	335.190021	-216.833166	310.307962	140.573909	-185.864716	213.094496	191.371612	-127.535606	243.589923	189.334575	-233.195258	257.410447	1023.299639	-491.472571	342.313080	1012.749761	-481.209979	352.829797	1043.063335	-463.438838	413.088231	958.842368	-480.526294	504.497127	919.018648	-457.897894	507.250080	889.128809	-346.694083	474.821140	826.560046	-474.814883	448.532884	745.016917	-463.450188	383.267598	683.010482	-470.718256	466.890896	734.825591	-428.399950	308.954286	592.585448	-461.130632	326.700501	582.846260	-384.501596	231.837450	553.498284	-426.117699	506.913398	470.748627	-438.554919	397.958430	477.243523	-496.762333	-162.450080	858.222570	-314.688419	37.213330	86.993775	-514.246240	33.899026	82.540309	-114.430356	
1004	5.0200	607.432971	1224.405981	-224.625704	548.933309	1223.904620	-530.168300	556.512354	1265.340892	-386.128724	532.346670	1128.709570	-372.107293	562.622391	1018.201306	-51.918530	700.854158	885.097122	-115.387617	505.918664	963.485402	-631.307375	685.139924	889.905316	-522.030509	28.623794	1141.914434	-310.272348	166.107436	1139.864999	-445.974310	156.620949	1129.339188	-163.251762	207.430077	1107.220804	-418.628200	206.871589	1101.555065	-188.832637	51.569616	1171.764540	-263.096409	55.327096	1179.989894	-346.483751	113.755370	1040.810151	-129.908412	124.821866	1058.664363	-487.260275	186.969745	961.213906	-114.127206	249.620490	899.061399	-109.017258	273.938359	819.005259	-87.660976	278.229904	913.207660	-129.469620	320.332328	684.697910	-121.881677	322.549351	669.736731	-229.830109	284.638703	582.528103	-107.808005	269.252634	496.288522	-126.757661	216.570902	428.301278	-127.596583	286.716178	493.496083	-162.448052	159.822266	325.763150	-139.629538	178.494129	342.336123	-217.062800	301.240035	145.006732	-185.969516	205.041972	198.052927	-127.672143	235.455183	195.040935	-233.585011	254.769036	1020.554956	-487.564099	340.791866	1009.481839	-481.428679	351.920577	1039.411353	-463.885133	410.628433	954.205932	-481.176545	501.640120	912.412364	-458.910147	504.778428	882.574888	-347.930803	472.882203	818.887055	-475.832403	448.320174	736.728194	-464.265893	384.491366	673.105876	-471.238425	466.866128	727.126670	-429.190428	312.061029	581.914878	-461.055837	329.925227	572.613630	-384.396016	235.854023	539.655217	-426.209362	514.152833	467.662869	-438.811178	405.003393	470.080450	-497.163114	-162.441701	858.071480	-315.197664	37.206390	86.891992	-514.273427	33.900105	82.530505	-114.448352	
